<svg xmlns="http://www.w3.org/2000/svg" version="1.1" xmlns:xlink="http://www.w3.org/1999/xlink" xmlns:svgjs="http://svgjs.dev/svgjs" width="1500" height="564" viewBox="0 0 1500 564"><g transform="matrix(1,0,0,1,-0.9090901243193912,-0.7011747479504038)"><svg viewBox="0 0 396 149" data-background-color="#fefefe" preserveAspectRatio="xMidYMid meet" height="564" width="1500" xmlns="http://www.w3.org/2000/svg" xmlns:xlink="http://www.w3.org/1999/xlink"><g id="tight-bounds" transform="matrix(1,0,0,1,0.23999979282032768,0.18523942809328275)"><svg viewBox="0 0 395.5199999999999 148.62922413486214" height="148.62922413486214" width="395.5199999999999"><g><svg viewBox="0 0 395.5199999999999 148.62922413486214" height="148.62922413486214" width="395.5199999999999"><g transform="matrix(1,0,0,1,0,91.85882322409327)"><svg viewBox="0 0 395.5199999999999 56.77040091076888" height="56.77040091076888" width="395.5199999999999"><g id="textblocktransform"><svg viewBox="0 0 395.5199999999999 56.77040091076888" height="56.77040091076888" width="395.5199999999999" id="textblock"><g><svg viewBox="0 0 395.5199999999999 56.77040091076888" height="56.77040091076888" width="395.5199999999999"><g transform="matrix(1,0,0,1,0,0)"><svg width="395.5199999999999" viewBox="3.25 -36.25 322.6324996619999 46.312578216658" height="56.77040091076888" data-palette-color="#000000"><path d="M8.25 7.55L8.25 7.55Q8.25 8.6 7.5 9.3 6.75 10 5.7 10 4.65 10 3.95 9.25 3.25 8.5 3.25 7.45L3.25 7.45Q3.45-2.4 3.45-24L3.45-24Q3.45-25.05 4.17-25.78 4.9-26.5 5.95-26.5L5.95-26.5Q6.7-26.5 7.33-25.83 7.95-25.15 8.25-24.15L8.25-24.15 8.95-24.6Q11.95-26.4 14.9-26.55 17.85-26.7 20.2-25.25L20.2-25.25Q22.4-24 23.93-21.75 25.45-19.5 26.15-16.85L26.15-16.85Q26.7-14.95 26.75-12.8 26.8-10.65 26.2-8.8 25.6-6.95 24.45-5.15 23.3-3.35 21.23-2 19.15-0.65 16.45-0.15L16.45-0.15Q11.8 0.7 8.4-1.75L8.4-1.75Q8.35 2.9 8.25 7.55L8.25 7.55ZM15.55-5.05L15.55-5.05Q19.35-5.75 20.88-8.68 22.4-11.6 21.35-15.55L21.35-15.55Q20.3-19.45 17.7-20.9L17.7-20.9Q15.05-22.45 11.55-20.3L11.55-20.3Q9.95-19.35 9.7-19.05L9.7-19.05Q9.55-18.9 9.45-18.78 9.35-18.65 9.1-18.2L9.1-18.2 8.45-17.3 8.45-9.1Q8.7-8.85 8.85-8.55L8.85-8.55Q10.25-6.35 11.8-5.5 13.35-4.65 15.55-5.05L15.55-5.05ZM44.6 0.25L44.6 0.25Q40.9 0 38.15-1.25 35.4-2.5 33.95-4.4 32.5-6.3 31.85-7.9 31.2-9.5 31.05-11.08 30.9-12.65 31.2-15.15L31.2-15.15Q31.55-17.25 32.67-19.3 33.8-21.35 35.67-22.98 37.55-24.6 40.2-25.48 42.85-26.35 45.85-26L45.85-26Q48.75-25.65 50.8-24.43 52.85-23.2 54.3-21.3L54.3-21.3Q55.55-19.7 55.82-18.9 56.1-18.1 56.32-17.4 56.55-16.7 56.7-16.2 56.85-15.7 56.97-15.18 57.1-14.65 57.15-13.95L57.15-13.95Q57.2-13 56.8-12.2 56.4-11.4 55.6-10.95L55.6-10.95Q54.95-10.7 54.2-10.7L54.2-10.7 45.65-10.55Q36.65-10.5 36.65-10.35L36.65-10.35 36.5-10.35Q37.15-7.8 39.22-6.35 41.3-4.9 44.9-4.65L44.9-4.65Q46.85-4.55 48.15-4.85L48.15-4.85Q49.6-5.25 50.25-5.58 50.9-5.9 51.85-6.45L51.85-6.45Q52.8-6.8 53.75-6.35 54.7-5.9 55.05-4.95 55.4-4 54.97-3.1 54.55-2.2 53.65-1.7L53.65-1.7Q52.85-1.25 52-0.93 51.15-0.6 49.5-0.15 47.85 0.3 44.6 0.25L44.6 0.25ZM36.6-15.25L36.6-15.25Q39.5-15.4 51.65-15.55L51.65-15.55Q51.2-17.05 50.2-18.4L50.2-18.4Q48.2-20.7 45.25-21.05L45.25-21.05Q42.15-21.45 39.8-19.73 37.45-18 36.6-15.25L36.6-15.25ZM64.55 0L64.55 0Q63.55 0 62.8-0.68 62.05-1.35 62.05-2.5L62.05-2.5 61.95-12.7Q61.9-16.15 61.9-21.3L61.9-21.3 61.9-24.25Q61.9-25.4 62.6-26.05 63.3-26.7 64.3-26.7L64.3-26.7Q65.34-26.7 66.12-26.03 66.9-25.35 66.9-24.15L66.9-24.15 66.9-22.65Q67.45-23.85 68.95-24.7L68.95-24.7Q71-25.95 73.45-25.95L73.45-25.95Q75.3-25.95 76.3-25.35 77.3-24.75 77.3-23.2L77.3-23.2Q77.3-22.2 76.7-21.53 76.09-20.85 74.95-20.85L74.95-20.85Q70.75-20.85 69.15-19.7L69.15-19.7Q68.25-19.1 67.57-18.25 66.9-17.4 66.9-16.6L66.9-16.6 67-10.35 67.05-2.5Q67.05-1.35 66.3-0.68 65.55 0 64.55 0L64.55 0ZM83.34 0L83.34 0Q82.44 0 81.79-0.55 81.14-1.1 81.04-2.15L81.04-2.15Q80.24-8.7 80.14-17.15L80.14-17.15 80.09-20.9 79.69-20.9Q78.44-20.9 77.77-21.63 77.09-22.35 77.09-23.45L77.09-23.45Q77.09-24.45 77.69-25.23 78.29-26 79.39-26L79.39-26 80.29-26Q80.29-28.95 81.17-31.68 82.04-34.4 83.74-35.35L83.74-35.35Q85.44-36.25 86.94-36.25L86.94-36.25Q89.04-36.25 90.29-35.5 91.54-34.75 91.54-33.35L91.54-33.35Q91.54-32.2 90.99-31.5 90.44-30.8 89.44-30.8L89.44-30.8Q89.14-30.8 88.87-30.85 88.59-30.9 88.34-30.95L88.34-30.95Q87.64-31.15 86.89-31.15L86.89-31.15Q86.04-31.15 85.74-29.78 85.44-28.4 85.29-26L85.29-26 87.44-26Q88.59-26 89.27-25.25 89.94-24.5 89.94-23.5L89.94-23.5Q89.94-22.5 89.27-21.75 88.59-21 87.44-21L87.44-21 85.09-21 85.14-17.2Q85.59-6.1 85.94-3.05L85.94-3.05Q86.09-1.4 85.29-0.7 84.49 0 83.34 0L83.34 0ZM112.94 0L112.94 0Q112.04-0.05 111.37-0.7 110.69-1.35 110.59-2.9L110.59-2.9Q108.29-0.9 105.84-0.3L105.84-0.3Q102.34 0.6 99.44-1.45L99.44-1.45Q96.64-3.45 95.04-8.05L95.04-8.05Q94.49-9.65 94.19-11.35L94.19-11.35Q93.89-13.1 93.92-15.08 93.94-17.05 93.99-18.28 94.04-19.5 94.24-21.63 94.44-23.75 94.49-24.3L94.49-24.3Q94.59-25.3 95.37-25.98 96.14-26.65 97.17-26.58 98.19-26.5 98.87-25.73 99.54-24.95 99.49-23.9L99.49-23.9Q99.44-23.15 99.22-21.05 98.99-18.95 98.97-17.93 98.94-16.9 98.92-15.23 98.89-13.55 99.12-12.23 99.34-10.9 99.74-9.65L99.74-9.65Q100.84-6.6 102.54-5.5L102.54-5.5Q103.24-5.05 104.84-5.05L104.84-5.05Q106.99-5.4 108.32-6.3 109.64-7.2 110.79-10.4L110.79-10.4Q110.89-17.05 110.64-23.9L110.64-23.9Q110.59-24.95 111.32-25.7 112.04-26.45 113.07-26.5 114.09-26.55 114.84-25.83 115.59-25.1 115.64-24.1L115.64-24.1Q116.04-12.3 115.59-2.35L115.59-2.35Q115.54-1.35 114.77-0.65 113.99 0.05 112.94 0L112.94 0ZM152.69-2.2L152.69-2.2Q152.64-3.1 152.56-3.88 152.49-4.65 152.46-5.03 152.44-5.4 152.41-5.68 152.39-5.95 152.39-6.3L152.39-6.3 152.39-9.15Q152.39-9.95 152.46-11.98 152.54-14 152.51-15.4 152.49-16.8 152.24-18.05L152.24-18.05Q151.94-19.8 151.19-20.58 150.44-21.35 148.89-21.35L148.89-21.35Q145.44-21.3 141.99-17.15L141.99-17.15Q142.14-15.65 142.14-11.35L142.14-11.35Q142.14-8.2 142.29-2.55L142.29-2.55Q142.34-1.55 141.61-0.8 140.89-0.05 139.86 0 138.84 0.05 138.09-0.68 137.34-1.4 137.29-2.45L137.29-2.45Q137.14-8.1 137.14-11.35L137.14-11.35 137.14-13.85Q137.14-14.1 137.11-14.9 137.09-15.7 137.06-16.07 137.04-16.45 136.96-17.07 136.89-17.7 136.81-18.18 136.74-18.65 136.59-19.1L136.59-19.1Q136.19-20.5 135.49-21.05L135.49-21.05Q134.74-21.65 133.24-21.5L133.24-21.5Q131.59-21.35 130.39-20.6L130.39-20.6Q129.24-19.85 128.04-18.2L128.04-18.2Q127.79-17.9 127.49-17.65L127.49-17.65Q127.69-7.65 127.49-2.4L127.49-2.4Q127.44-1.35 126.69-0.65 125.94 0.05 124.89 0 123.84-0.05 123.14-0.8 122.44-1.55 122.49-2.6L122.49-2.6Q122.59-8.15 122.59-9.73 122.59-11.3 122.46-16.98 122.34-22.65 122.34-24.25L122.34-24.25Q122.34-25 123.06-25.75 123.79-26.5 124.79-26.5 125.79-26.5 126.59-25.88 127.39-25.25 127.34-23.55L127.34-23.55Q129.59-26.2 132.84-26.5L132.84-26.5Q136.29-26.8 138.59-24.95L138.59-24.95Q139.79-24 140.74-22.3L140.74-22.3Q143.84-26.2 148.89-26.5L148.89-26.5Q152.59-26.55 154.84-24.2L154.84-24.2Q156.59-22.15 157.19-18.95L157.19-18.95Q157.44-17.45 157.49-15.68 157.54-13.9 157.46-11.68 157.39-9.45 157.39-9.15L157.39-9.15 157.39-6.4Q157.39-6.15 157.41-5.9 157.44-5.65 157.46-5.33 157.49-5 157.54-4.25 157.59-3.5 157.69-2.6L157.69-2.6Q157.74-1.55 157.06-0.78 156.39 0 155.36 0.08 154.34 0.15 153.56-0.53 152.79-1.2 152.69-2.2L152.69-2.2ZM176.03 0.25L176.03 0.25Q172.34 0 169.59-1.25 166.84-2.5 165.38-4.4 163.94-6.3 163.28-7.9 162.63-9.5 162.49-11.08 162.34-12.65 162.63-15.15L162.63-15.15Q162.99-17.25 164.11-19.3 165.24-21.35 167.11-22.98 168.99-24.6 171.63-25.48 174.28-26.35 177.28-26L177.28-26Q180.19-25.65 182.24-24.43 184.28-23.2 185.74-21.3L185.74-21.3Q186.99-19.7 187.26-18.9 187.53-18.1 187.76-17.4 187.99-16.7 188.13-16.2 188.28-15.7 188.41-15.18 188.53-14.65 188.59-13.95L188.59-13.95Q188.63-13 188.24-12.2 187.84-11.4 187.03-10.95L187.03-10.95Q186.38-10.7 185.63-10.7L185.63-10.7 177.09-10.55Q168.09-10.5 168.09-10.35L168.09-10.35 167.94-10.35Q168.59-7.8 170.66-6.35 172.74-4.9 176.34-4.65L176.34-4.65Q178.28-4.55 179.59-4.85L179.59-4.85Q181.03-5.25 181.69-5.58 182.34-5.9 183.28-6.45L183.28-6.45Q184.24-6.8 185.19-6.35 186.13-5.9 186.49-4.95 186.84-4 186.41-3.1 185.99-2.2 185.09-1.7L185.09-1.7Q184.28-1.25 183.44-0.93 182.59-0.6 180.94-0.15 179.28 0.3 176.03 0.25L176.03 0.25ZM168.03-15.25L168.03-15.25Q170.94-15.4 183.09-15.55L183.09-15.55Q182.63-17.05 181.63-18.4L181.63-18.4Q179.63-20.7 176.69-21.05L176.69-21.05Q173.59-21.45 171.24-19.73 168.88-18 168.03-15.25L168.03-15.25ZM215.13-0.15L215.13-0.15Q214.83-0.25 213.91-0.45 212.98-0.65 212.31-0.9 211.63-1.15 210.76-1.63 209.88-2.1 209.18-2.93 208.48-3.75 207.98-4.9L207.98-4.9Q207.43-6.25 207.28-10.2L207.28-10.2Q207.13-13.25 207.23-18.05L207.23-18.05Q207.23-18.95 207.28-21.05L207.28-21.05 206.88-21Q205.83-20.9 205.03-21.55 204.23-22.2 204.11-23.23 203.98-24.25 204.63-25.05 205.28-25.85 206.28-26L206.28-26 207.43-26.1Q207.48-28.75 207.58-31.45L207.58-31.45Q207.63-32.5 208.38-33.2 209.13-33.9 210.18-33.85 211.23-33.8 211.93-33.05 212.63-32.3 212.58-31.25L212.58-31.25 212.43-26.5 214.08-26.6Q215.13-26.65 215.91-26 216.68-25.35 216.76-24.3 216.83-23.25 216.18-22.48 215.53-21.7 214.48-21.6L214.48-21.6 212.28-21.5Q212.23-19.1 212.23-18L212.23-18Q212.13-13.3 212.28-10.35L212.28-10.35Q212.38-7.35 212.58-6.9 212.78-6.45 212.88-6.28 212.98-6.1 213.26-5.93 213.53-5.75 213.83-5.7 214.13-5.65 214.96-5.43 215.78-5.2 216.73-4.85L216.73-4.85Q217.68-4.55 218.16-3.63 218.63-2.7 218.31-1.73 217.98-0.75 217.06-0.28 216.13 0.2 215.13-0.15L215.13-0.15ZM235.28-0.35L235.28-0.35Q228.68 1.25 224.73-3L224.73-3Q221.58-6.25 220.83-11.35L220.83-11.35Q220.28-15.35 221.78-18.95L221.78-18.95Q223.58-23.55 227.48-25.75L227.48-25.75Q228.28-26.2 229.48-26.4L229.48-26.4Q229.53-26.4 230.18-26.45L230.18-26.45Q230.43-26.5 230.58-26.55L230.58-26.55Q231.33-26.7 232.08-26.4L232.08-26.4Q232.28-26.4 233.03-26.38 233.78-26.35 234.03-26.33 234.28-26.3 234.9-26.23 235.53-26.15 235.93-26.05L235.93-26.05 236.88-25.7Q237.48-25.5 238.03-25.2 238.58-24.9 239.23-24.5L239.23-24.5Q242.48-22.3 243.73-18.32 244.98-14.35 244.38-11.9L244.38-11.9Q243.93-9.2 242.78-6.88 241.63-4.55 239.6-2.75 237.58-0.95 235.28-0.35L235.28-0.35ZM233.73-5.55L233.73-5.55Q235.88-5.85 237.4-7.78 238.93-9.7 239.4-11.85 239.88-14 239.05-16.57 238.23-19.15 236.43-20.3L236.43-20.3Q235.88-20.7 235.53-20.88 235.18-21.05 234.7-21.18 234.23-21.3 233.95-21.3 233.68-21.3 232.78-21.35 231.88-21.4 231.18-21.45L231.18-21.45Q231.03-21.45 230.83-21.5L230.83-21.5Q230.28-21.45 230.23-21.45L230.23-21.45 229.88-21.35Q227.68-20.15 226.5-17.53 225.33-14.9 225.83-12.1L225.83-12.1Q226.38-8.7 228.28-6.95L228.28-6.95Q230.33-5.05 233.73-5.55L233.73-5.55ZM269.73 0L269.73 0Q268.93 0 268.28-0.45 267.63-0.9 267.38-2.15L267.38-2.15Q265.23-0.6 262.88-0.15L262.88-0.15Q259.63 0.45 256.93-0.5 254.23-1.45 252.38-3.65L252.38-3.65Q249.03-7.55 249.08-13.55L249.08-13.55Q249.13-18.95 252.58-22.85L252.58-22.85Q256.73-27.5 263.48-26.3L263.48-26.3Q265.78-25.9 266.98-25.25L266.98-25.25 266.88-33.25Q266.88-34.3 267.6-35.05 268.33-35.8 269.35-35.8 270.38-35.8 271.13-35.08 271.88-34.35 271.88-33.35L271.88-33.35Q272.23-10.55 272.23-2.5L272.23-2.5Q272.23-1.45 271.5-0.73 270.78 0 269.73 0L269.73 0ZM261.98-5.05L261.98-5.05Q262.93-5.25 263.98-5.75 265.03-6.25 265.45-6.58 265.88-6.9 266.1-7.15 266.33-7.4 266.63-7.73 266.93-8.05 267.18-8.75L267.18-8.75Q267.18-15.1 267.08-18.85L267.08-18.85Q267.03-18.85 266.98-18.9L266.98-18.9Q264.88-20.7 264.88-20.75L264.88-20.75Q264.33-21.1 262.58-21.4L262.58-21.4Q258.58-22.1 256.33-19.5L256.33-19.5Q254.08-17.05 254.08-13.55L254.08-13.55Q254.03-9.4 256.18-6.88 258.33-4.35 261.98-5.05L261.98-5.05ZM292.62-0.8L292.62-0.8Q290.82-0.1 288.55 0 286.27 0.1 284.32-0.53 282.37-1.15 280.87-2.45L280.87-2.45Q278.27-4.6 277.52-7.8 276.77-11 277.47-13.55 278.17-16.1 279.6-18.53 281.02-20.95 282.7-22.63 284.37-24.3 286.57-25.45 288.77-26.6 291.17-26.58 293.57-26.55 296.22-25.25L296.22-25.25Q296.62-25.05 297.1-24.65 297.57-24.25 297.92-23.95L297.92-23.95 298.57-23.3Q298.87-23 298.87-22.95L298.87-22.95Q299.67-22.25 299.72-21.15L299.72-21.15Q300.37-18.15 300.57-14.85 300.77-11.55 300.7-8.65 300.62-5.75 300.77-2.5L300.77-2.5Q300.82-1.5 300.12-0.75 299.42 0 298.37 0.05 297.32 0.1 296.57-0.6 295.82-1.3 295.77-2.3L295.77-2.3 295.77-3.05Q294.27-1.5 292.62-0.8L292.62-0.8ZM290.37-5.3L290.37-5.3Q291.12-5.5 291.57-5.7 292.02-5.9 292.7-6.3 293.37-6.7 294.12-7.3 294.87-7.9 295.47-8.8L295.47-8.8Q295.57-8.9 295.72-9L295.72-9Q295.72-15.75 294.87-19.85L294.87-19.85Q294.72-20.05 294.55-20.23 294.37-20.4 294.3-20.5 294.22-20.6 294.1-20.68 293.97-20.75 293.82-20.85L293.82-20.85Q291.42-22.15 288.77-20.93 286.12-19.7 284.12-16.35L284.12-16.35Q282.12-12.95 282.15-10.43 282.17-7.9 284.07-6.25L284.07-6.25Q285.22-5.3 286.92-5.05 288.62-4.8 290.37-5.3L290.37-5.3ZM306.42 10.05L306.42 10.05Q305.37 10.15 304.57 9.47 303.77 8.8 303.67 7.78 303.57 6.75 304.25 5.95 304.92 5.15 305.92 5.05L305.92 5.05Q306.42 5 307.12 4.95 307.82 4.9 308.05 4.88 308.27 4.85 308.62 4.78 308.97 4.7 309.17 4.55L309.17 4.55 309.67 4.25Q310.87 3.65 311.82 0.9L311.82 0.9Q312.12 0.05 312.42-0.3L312.42-0.3Q312.07-0.7 311.87-1.25L311.87-1.25Q310.97-5.1 308.17-12.65L308.17-12.65Q305.67-19.3 304.47-23.3L304.47-23.3Q304.17-24.3 304.67-25.2 305.17-26.1 306.17-26.4 307.17-26.7 308.07-26.2 308.97-25.7 309.27-24.7L309.27-24.7Q310.22-21.5 312.87-14.4L312.87-14.4 314.77-9.2Q318.27-19.9 321.17-25.25L321.17-25.25Q321.67-26.15 322.67-26.45 323.67-26.75 324.57-26.25 325.47-25.75 325.77-24.75 326.07-23.75 325.57-22.85L325.57-22.85Q324.27-20.45 322.87-17 321.47-13.55 320.67-11.2 319.87-8.85 318.57-4.65L318.57-4.65Q318.27-3.65 318.17-3.25L318.17-3.25Q317.92-2.6 317.47-0.65L317.47-0.65Q316.92 1.2 316.57 2.35L316.57 2.35Q315.17 6.25 312.77 8.15L312.77 8.15Q312.07 8.7 311.37 9.08 310.67 9.45 309.9 9.63 309.12 9.8 308.67 9.88 308.22 9.95 307.4 9.98 306.57 10 306.42 10.05L306.42 10.05Z" opacity="1" transform="matrix(1,0,0,1,0,0)" fill="#000000" class="wordmark-text-0" data-fill-palette-color="primary" id="text-0"></path></svg></g></svg></g></svg></g></svg></g><g transform="matrix(1,0,0,1,158.53165297065868,0)"><svg viewBox="0 0 78.45669405868259 78.4566940586826" height="78.4566940586826" width="78.45669405868259"><g><svg></svg></g><g id="icon-0"><svg viewBox="0 0 78.45669405868259 78.4566940586826" height="78.4566940586826" width="78.45669405868259"><g><path transform="scale(0.78457,0.78457)" d="M30 100c-16.569 0-30-13.431-30-30v-40c0-16.569 13.431-30 30-30h40c16.569 0 30 13.431 30 30v40c0 16.569-13.431 30-30 30z" fill="#39cccc" fill-rule="nonzero" stroke="none" stroke-width="1" stroke-linecap="butt" stroke-linejoin="miter" stroke-miterlimit="10" stroke-dasharray="" stroke-dashoffset="0" font-family="none" font-weight="none" font-size="none" text-anchor="none" style="mix-blend-mode: normal" data-fill-palette-color="accent"></path></g><g transform="matrix(1,0,0,1,17.222737092103046,15.691338811736522)"><svg viewBox="0 0 44.011219874476495 47.07401643520956" height="47.07401643520956" width="44.011219874476495"><g><svg xmlns="http://www.w3.org/2000/svg" xmlns:xlink="http://www.w3.org/1999/xlink" version="1.1" x="0" y="0" viewBox="22.826149074370583 20.92030945902761 54.36814260354833 58.151690540972396" enable-background="new 0 0 100 100" xml:space="preserve" height="47.07401643520956" width="44.011219874476495" class="icon-dxe-0" data-fill-palette-color="quaternary" id="dxe-0"><path fill="#010536" d="M63.835 32.035V24.802C63.835 24.112 63.275 23.552 62.585 23.552H58.618C57.928 23.552 57.368 24.112 57.368 24.802V26.099A1.2 1.2 0 0 0 56.887 26.002H54.681C54.019 26.002 53.492 26.521 53.448 27.171 39.399 28.452 29.489 38.369 29.414 51.717 27.212 52.362 25.354 54.146 24.141 56.838 22.927 59.528 22.53 62.78 23.049 65.761 24.113 71.874 28.761 76.848 33.408 76.848 33.781 76.848 34.156 76.816 34.521 76.752 37.039 76.314 39.165 74.432 40.509 71.453 41.723 68.763 42.12 65.511 41.601 62.53 40.588 56.715 36.333 51.94 31.919 51.488 32.107 39.612 41.06 30.806 53.722 29.658 53.951 29.942 54.287 30.136 54.681 30.136H56.887C57.058 30.136 57.22 30.101 57.368 30.039V32.036C57.368 32.599 57.747 33.057 58.259 33.214V34.327H57.532A2.995 2.995 0 0 0 54.541 37.318V40.861C54.541 41.35 54.67 41.804 54.879 42.212 49.056 44.01 44.918 48.456 44.918 53.653 44.918 58.454 48.665 68.139 54.377 72.646A3.238 3.238 0 0 0 54.933 79.072H66.27A3.24 3.24 0 0 0 69.504 75.824 3.235 3.235 0 0 0 66.827 72.646C72.538 68.138 76.285 58.454 76.285 53.652 76.285 48.454 72.147 44.009 66.324 42.211 66.533 41.803 66.662 41.349 66.662 40.86V37.317A2.995 2.995 0 0 0 63.671 34.326H62.945V33.212C63.456 33.056 63.835 32.598 63.835 32.035M39.138 62.959C39.574 65.459 39.242 68.18 38.23 70.425 37.238 72.625 35.768 73.998 34.092 74.29 30.582 74.902 26.404 70.465 25.511 65.332 25.075 62.832 25.407 60.111 26.419 57.866 27.411 55.666 28.881 54.293 30.557 54.002 30.781 53.963 31.011 53.943 31.241 53.943 34.611 53.943 38.302 58.156 39.138 62.959M66.399 48.581C67.847 52.254 68.192 59.273 61.851 71.87V43.898C61.971 43.907 62.088 43.92 62.207 43.932 62.342 43.98 64.978 44.974 66.399 48.581M54.805 48.581C56.223 44.984 58.851 43.985 58.996 43.932 59.115 43.921 59.232 43.908 59.351 43.899V71.866C53.012 59.272 53.357 52.254 54.805 48.581M47.418 53.653C47.418 50.129 49.941 47.042 53.708 45.314A12 12 0 0 0 52.52 47.563C50.266 53.146 51.448 60.925 56.007 70.703 51.179 66.9 47.418 58.188 47.418 53.653M66.27 76.572H54.934A0.747 0.747 0 0 1 54.2 75.824C54.2 75.426 54.536 75.09 54.934 75.09H66.27C66.668 75.09 67.004 75.426 67.004 75.838A0.744 0.744 0 0 1 66.27 76.572M73.785 53.653C73.785 58.187 70.026 66.897 65.199 70.7 69.758 60.923 70.938 53.144 68.684 47.562A12.2 12.2 0 0 0 67.496 45.315C71.262 47.042 73.785 50.129 73.785 53.653M64.162 37.317V40.86A0.5 0.5 0 0 1 63.671 41.351H57.532A0.497 0.497 0 0 1 57.041 40.86V37.317C57.041 37.051 57.266 36.826 57.532 36.826H63.672C63.938 36.826 64.162 37.051 64.162 37.317M61.335 26.052V30.785H59.868V28.485C59.881 28.415 59.91 28.351 59.91 28.277S59.881 28.139 59.868 28.069V26.052z" data-fill-palette-color="quaternary"></path><path fill="#010536" d="M70.397 25.996C70.573 25.996 70.751 25.958 70.922 25.879L76.451 23.313A1.25 1.25 0 1 0 75.398 21.046L69.869 23.612A1.25 1.25 0 0 0 70.397 25.996" data-fill-palette-color="quaternary"></path><path fill="#010536" d="M70.923 31.343A1.25 1.25 0 1 0 69.87 33.61L75.399 36.176A1.25 1.25 0 0 0 77.059 35.569 1.25 1.25 0 0 0 76.452 33.909z" data-fill-palette-color="quaternary"></path><path fill="#010536" d="M70.396 29.856H75.925A1.25 1.25 0 0 0 75.925 27.356H70.396A1.25 1.25 0 0 0 70.396 29.856" data-fill-palette-color="quaternary"></path></svg></g></svg></g></svg></g></svg></g><g></g></svg></g><defs></defs></svg><rect width="395.5199999999999" height="148.62922413486214" fill="none" stroke="none" visibility="hidden"></rect></g></svg></g></svg>